<svg width="21" height="20" viewBox="0 0 21 20" fill="none" xmlns="http://www.w3.org/2000/svg">
<path fill-rule="evenodd" clip-rule="evenodd" d="M4.25 7.22656C4.25 3.89896 7.07899 1.25 10.5 1.25C13.921 1.25 16.75 3.89896 16.75 7.22656C16.75 9.10252 15.7357 11.4235 14.6246 13.4296C13.4969 15.4658 12.1981 17.3003 11.5016 18.2409C11.3867 18.398 11.2364 18.5259 11.0629 18.6142C10.8885 18.7029 10.6957 18.7492 10.5 18.7492C10.3043 18.7492 10.1115 18.7029 9.93708 18.6142C9.76356 18.5259 9.61327 18.398 9.49834 18.2408C8.80187 17.2999 7.5031 15.4647 6.37536 13.4283C5.26432 11.422 4.25 9.10119 4.25 7.22656ZM10.5 2.5C7.71007 2.5 5.5 4.64713 5.5 7.22656C5.5 8.75037 6.36068 10.8215 7.46888 12.8227C8.55739 14.7883 9.8182 16.5716 10.5 17.493C11.1818 16.5721 12.4426 14.7894 13.5311 12.824C14.6393 10.8232 15.5 8.75177 15.5 7.22656C15.5 4.64713 13.2899 2.5 10.5 2.5Z" fill="black"/>
<path fill-rule="evenodd" clip-rule="evenodd" d="M10.5 6.25C9.80964 6.25 9.25 6.80964 9.25 7.5C9.25 8.19036 9.80964 8.75 10.5 8.75C11.1904 8.75 11.75 8.19036 11.75 7.5C11.75 6.80964 11.1904 6.25 10.5 6.25ZM8 7.5C8 6.11929 9.11929 5 10.5 5C11.8807 5 13 6.11929 13 7.5C13 8.88071 11.8807 10 10.5 10C9.11929 10 8 8.88071 8 7.5Z" fill="black"/>
</svg>
