<svg width="32" height="32" viewBox="0 0 32 32" fill="none" xmlns="http://www.w3.org/2000/svg">
<path d="M16 4C9.37482 4 4 9.37482 4 16C4 22.6252 9.37482 28 16 28C22.6252 28 28 22.6311 28 16C28 9.36893 22.6252 4 16 4ZM23.6189 9.53125C25.0074 11.1635 25.8338 13.1991 25.9761 15.3373C23.8134 15.2248 21.2259 15.2248 19.1511 15.4187C18.8886 14.7561 18.6196 14.1062 18.3261 13.4811C20.7186 12.4439 22.5625 11.0811 23.6189 9.53125ZM16 5.99982C18.3309 5.99582 20.5892 6.8099 22.3814 8.30018C21.2939 9.67482 19.5877 10.8716 17.4625 11.7748C16.3 9.625 14.9623 7.77518 13.5357 6.31857C14.3408 6.11074 15.1685 6.00367 16 5.99982ZM11.4748 7.09375C12.9186 8.53107 14.275 10.3616 15.4627 12.5045C13.2063 13.1939 10.6188 13.5893 7.85714 13.5893C7.33214 13.5893 6.82 13.5705 6.31375 13.5389C6.6659 12.1593 7.30845 10.8706 8.19848 9.75916C9.0885 8.64769 10.2055 7.73898 11.4748 7.09375ZM6.01857 15.5248C6.5875 15.55 7.16232 15.5623 7.74357 15.5564C10.8936 15.5189 13.825 15.025 16.3439 14.2171C16.5814 14.7111 16.8064 15.2173 17.0189 15.7359C16.7146 15.8025 16.4157 15.8921 16.1248 16.0038C12.6812 17.4502 9.96893 19.7811 8.5 22.6C6.8893 20.7787 6.00008 18.4314 5.99982 16C5.99982 15.8393 6.00625 15.6813 6.01857 15.5248ZM16 26.0002C13.7783 26.0029 11.6197 25.2613 9.86875 23.8938C11.2 21.2564 13.5748 19.0723 16.5689 17.7186C16.8502 17.5873 17.2252 17.4812 17.6564 17.3875C18.0136 18.3746 18.3323 19.3996 18.6127 20.4625C19.0314 22.0667 19.3398 23.6976 19.5357 25.3439C18.407 25.7764 17.2087 25.9988 16 26.0002ZM21.4064 24.4064C21.2109 22.743 20.8996 21.0953 20.4748 19.4752C20.2605 18.6625 20.0189 17.875 19.7564 17.1062C21.7187 16.9455 24.0689 16.9686 25.9375 17.1062C25.7728 18.5835 25.2806 20.0054 24.4968 21.2683C23.7129 22.5312 22.6572 23.6033 21.4064 24.4064Z" fill="black"/>
</svg>
