<svg width="32" height="32" viewBox="0 0 32 32" fill="none" xmlns="http://www.w3.org/2000/svg">
<path fill-rule="evenodd" clip-rule="evenodd" d="M24.5312 7.46876C23.5943 6.53187 22.3248 6.00378 20.9998 5.99982H11.0002C9.67522 6.00378 8.40566 6.53187 7.46876 7.46876C6.53187 8.40566 6.00378 9.67522 5.99982 11.0002V20.9998C6.00378 22.3248 6.53187 23.5943 7.46876 24.5312C8.40566 25.4681 9.67522 25.9962 11.0002 26.0002H20.9998C22.3248 25.9962 23.5943 25.4681 24.5312 24.5312C25.4681 23.5943 25.9962 22.3248 26.0002 20.9998V11.0002C25.9962 9.67522 25.4681 8.40566 24.5312 7.46876ZM11.0002 4H20.9998C24.85 4 28 7.15 28 11.0002V20.9998C28 24.85 24.85 28 20.9998 28H11.0002C7.15 28 4 24.85 4 20.9998V11.0002C4 7.15 7.15 4 11.0002 4ZM21.6665 10.7474C21.9131 10.9122 22.2032 11.0002 22.4998 11.0002C22.6969 11.0006 22.8922 10.9621 23.0744 10.8869C23.2565 10.8116 23.4221 10.7012 23.5614 10.5618C23.7008 10.4224 23.8113 10.2569 23.8865 10.0747C23.9617 9.89252 24.0002 9.69728 23.9998 9.50017C23.9998 9.2035 23.9118 8.91349 23.747 8.66682C23.5822 8.42015 23.3479 8.22789 23.0739 8.11436C22.7998 8.00082 22.4982 7.97112 22.2072 8.029C21.9162 8.08687 21.6489 8.22974 21.4392 8.43951C21.2294 8.64929 21.0865 8.91657 21.0286 9.20754C20.9708 9.49851 21.0005 9.80011 21.114 10.0742C21.2275 10.3483 21.4198 10.5826 21.6665 10.7474ZM18.2224 12.674C17.5646 12.2344 16.7912 11.9998 16 11.9998C14.9394 12.001 13.9226 12.4228 13.1727 13.1727C12.4228 13.9226 12.001 14.9394 11.9998 16C11.9998 16.7912 12.2344 17.5646 12.674 18.2224C13.1135 18.8802 13.7383 19.3929 14.4692 19.6957C15.2001 19.9984 16.0044 20.0777 16.7804 19.9233C17.5564 19.769 18.2691 19.388 18.8286 18.8285C19.388 18.2691 19.769 17.5564 19.9233 16.7804C20.0777 16.0044 19.9985 15.2001 19.6957 14.4692C19.3929 13.7383 18.8802 13.1135 18.2224 12.674ZM12.6666 11.0112C13.6533 10.3519 14.8133 10 16 10C17.5913 10 19.1174 10.6321 20.2426 11.7574C21.3679 12.8826 22 14.4087 22 16C22 17.1867 21.6481 18.3467 20.9888 19.3334C20.3295 20.3201 19.3925 21.0891 18.2961 21.5433C17.1997 21.9974 15.9933 22.1162 14.8295 21.8847C13.6656 21.6532 12.5965 21.0818 11.7574 20.2426C10.9182 19.4035 10.3468 18.3344 10.1153 17.1705C9.88378 16.0067 10.0026 14.8003 10.4567 13.7039C10.9109 12.6075 11.6799 11.6705 12.6666 11.0112Z" fill="black"/>
</svg>
