<svg width="32" height="32" viewBox="0 0 32 32" fill="none" xmlns="http://www.w3.org/2000/svg">
<path d="M16 2.66667C8.64806 2.66667 2.66669 8.64805 2.66669 16C2.66669 23.352 8.64806 29.3333 16 29.3333C23.352 29.3333 29.3334 23.352 29.3334 16C29.3334 8.64805 23.352 2.66667 16 2.66667ZM16 4.66667C22.2711 4.66667 27.3334 9.72893 27.3334 16C27.3334 21.1102 23.9713 25.415 19.3334 26.8346V23.4245C19.3334 22.1511 18.5996 21.0591 17.5391 20.5156C18.5702 20.3184 19.5277 19.9272 20.332 19.3746C21.1363 18.822 21.7643 18.1239 22.1638 17.3383C22.5633 16.5526 22.7228 15.7021 22.6291 14.8572C22.5354 14.0124 22.1912 13.1976 21.625 12.4805C21.9207 11.5703 22.251 9.97379 21.4662 8.71745C19.9529 8.71745 18.9765 9.75473 18.5104 10.3997C17.7138 10.138 16.8612 10.0023 16 10C15.1382 10.0008 14.2848 10.1352 13.487 10.3958C13.0198 9.75052 12.0442 8.71745 10.5339 8.71745C9.63316 10.1592 10.19 11.7097 10.4883 12.3425C9.88386 13.0565 9.50485 13.8771 9.38377 14.734C9.26268 15.5909 9.40312 16.4585 9.79306 17.2624C10.183 18.0663 10.8108 18.7827 11.6227 19.3499C12.4345 19.9172 13.4062 20.3186 14.4544 20.5195C13.5837 20.9683 12.9315 21.7827 12.7318 22.7708H11.8555C10.9908 22.7708 10.6549 22.4195 10.1875 21.8268C9.72619 21.2342 9.23014 20.8359 8.63414 20.6706C8.3128 20.6366 8.09632 20.881 8.37632 21.0977C9.32232 21.7417 9.38761 22.7957 9.76695 23.4857C10.1123 24.107 10.8198 24.6667 11.6198 24.6667H12.6667V26.8346C8.02873 25.415 4.66669 21.1102 4.66669 16C4.66669 9.72893 9.72894 4.66667 16 4.66667Z" fill="black"/>
</svg>
