<svg width="17" height="17" viewBox="0 0 17 17" fill="none" xmlns="http://www.w3.org/2000/svg">
<path d="M13.1263 6.47034C13.048 6.286 12.867 6.16667 12.6667 6.16667H10.3313L12.4313 2.58634C12.522 2.43167 12.523 2.24034 12.434 2.085C12.3447 1.92934 12.1793 1.83334 12 1.83334H8.00001C7.81768 1.83334 7.64968 1.93267 7.56201 2.09234L3.89535 8.759C3.81035 8.91367 3.81301 9.10234 3.90301 9.25434C3.99301 9.40667 4.15668 9.5 4.33335 9.5H6.59168L4.53768 14.476C4.44601 14.6983 4.52535 14.9543 4.72668 15.0857C4.81068 15.14 4.90535 15.1667 5.00001 15.1667C5.13235 15.1667 5.26401 15.114 5.36101 15.0127L13.0277 7.01267C13.1663 6.868 13.2053 6.65467 13.1263 6.47034Z" fill="black"/>
</svg>
