<svg width="32" height="32" viewBox="0 0 32 32" fill="none" xmlns="http://www.w3.org/2000/svg">
<path d="M7.66667 4C5.65348 4 4 5.65348 4 7.66667V24.3333C4 26.3465 5.65348 28 7.66667 28H24.3333C26.3465 28 28 26.3465 28 24.3333V7.66667C28 5.65348 26.3465 4 24.3333 4H7.66667ZM7.66667 6H24.3333C25.2655 6 26 6.73452 26 7.66667V24.3333C26 25.2655 25.2655 26 24.3333 26H7.66667C6.73452 26 6 25.2655 6 24.3333V7.66667C6 6.73452 6.73452 6 7.66667 6ZM10.3333 8.66667C9.89131 8.66667 9.46738 8.84226 9.15482 9.15482C8.84226 9.46738 8.66667 9.89131 8.66667 10.3333C8.66667 10.7754 8.84226 11.1993 9.15482 11.5118C9.46738 11.8244 9.89131 12 10.3333 12C10.7754 12 11.1993 11.8244 11.5118 11.5118C11.8244 11.1993 12 10.7754 12 10.3333C12 9.89131 11.8244 9.46738 11.5118 9.15482C11.1993 8.84226 10.7754 8.66667 10.3333 8.66667ZM9.33333 13.3333C8.96467 13.3333 8.66667 13.6313 8.66667 14V22.6667C8.66667 23.0353 8.96467 23.3333 9.33333 23.3333H11.3333C11.702 23.3333 12 23.0353 12 22.6667V14C12 13.6313 11.702 13.3333 11.3333 13.3333H9.33333ZM14 13.3333C13.6313 13.3333 13.3333 13.6313 13.3333 14V22.6667C13.3333 23.0353 13.6313 23.3333 14 23.3333H16C16.3687 23.3333 16.6667 23.0353 16.6667 22.6667V17.6667C16.6667 16.7473 17.414 16 18.3333 16C19.2527 16 20 16.7473 20 17.6667V22.6667C20 23.0353 20.298 23.3333 20.6667 23.3333H22.6667C23.0353 23.3333 23.3333 23.0353 23.3333 22.6667V17.3333C23.3333 15.1273 21.5393 13.3333 19.3333 13.3333C18.308 13.3333 17.3753 13.724 16.6667 14.3607V14C16.6667 13.6313 16.3687 13.3333 16 13.3333H14Z" fill="black"/>
</svg>
